<?xml version="1.0" standalone="no"?>
<!DOCTYPE svg PUBLIC "-//W3C//DTD SVG 20010904//EN"
 "http://www.w3.org/TR/2001/REC-SVG-20010904/DTD/svg10.dtd">
<svg version="1.0" xmlns="http://www.w3.org/2000/svg"
 width="567.000000pt" height="440.000000pt" viewBox="0 0 567.000000 440.000000"
 preserveAspectRatio="xMidYMid meet">

<g transform="translate(0.000000,440.000000) scale(0.100000,-0.100000)"
fill="#228be6" stroke="none">
<path d="M2789 4158 c-2 -7 -2 -305 1 -663 l6 -650 2 663 c1 364 0 662 -2 662
-2 0 -5 -6 -7 -12z"/>
<path d="M4098 3995 c-42 -48 -48 -79 -19 -95 31 -16 56 -12 78 13 40 43 38
93 -5 116 -13 7 -25 0 -54 -34z"/>
<path d="M3473 3870 c-40 -45 -42 -76 -9 -91 39 -18 75 -3 92 37 11 27 12 39
3 57 -25 48 -44 47 -86 -3z"/>
<path d="M4643 3798 c-48 -59 -40 -98 19 -98 40 0 68 32 68 78 0 72 -39 81
-87 20z"/>
<path d="M1240 3794 c-140 -26 -271 -67 -257 -80 2 -3 40 6 83 18 71 20 100
23 294 22 187 0 236 -4 375 -27 206 -35 341 -44 431 -27 141 26 122 36 -86 44
-74 3 -211 15 -305 26 -163 20 -482 34 -535 24z"/>
<path d="M3771 3624 c-48 -40 -37 -84 22 -84 46 0 67 17 67 53 0 61 -38 74
-89 31z"/>
<path d="M4240 3492 c-25 -31 -25 -37 2 -56 33 -23 84 -20 102 5 20 30 13 42
-39 60 -45 17 -45 17 -65 -9z"/>
<path d="M1187 3330 c-71 -13 -179 -47 -202 -64 -16 -12 -4 -10 55 5 186 48
347 48 693 -1 219 -32 369 -38 459 -19 56 12 87 29 53 29 -102 1 -289 15 -420
32 -176 22 -557 33 -638 18z"/>
<path d="M3533 3259 c-28 -10 -57 -54 -49 -74 3 -8 17 -20 30 -27 20 -9 30 -8
51 6 65 43 38 121 -32 95z"/>
<path d="M4031 3156 c-30 -32 -25 -68 12 -80 39 -14 81 10 85 47 7 58 -55 78
-97 33z"/>
<path d="M4594 3142 c-6 -4 -17 -18 -24 -31 -11 -22 -10 -27 10 -43 41 -33
110 -17 110 26 0 18 -9 28 -40 40 -47 18 -42 18 -56 8z"/>
<path d="M1240 2923 c-117 -18 -279 -67 -267 -80 3 -2 42 6 88 19 76 20 106
23 304 22 199 0 235 -2 375 -28 115 -22 188 -29 285 -30 123 -1 235 15 235 33
0 5 -66 11 -147 15 -158 7 -264 17 -468 41 -117 14 -342 18 -405 8z"/>
<path d="M3705 2859 c-62 -9 -199 -52 -225 -70 -17 -12 -6 -11 105 16 42 10
136 18 235 22 154 5 183 3 424 -32 208 -29 277 -35 344 -31 86 6 170 23 185
36 4 4 -55 10 -132 14 -76 3 -250 17 -386 31 -249 25 -439 30 -550 14z"/>
<path d="M2682 2778 c-130 -14 -241 -92 -328 -228 -70 -109 -59 -112 43 -10
80 79 114 105 185 140 104 51 157 59 248 35 114 -29 340 -152 340 -185 0 -6
-30 -10 -67 -11 -44 0 -61 -3 -48 -8 37 -14 165 -45 169 -40 8 8 -6 129 -15
129 -5 0 -9 -11 -9 -25 0 -14 -5 -25 -11 -25 -6 0 -41 31 -78 69 -120 122
-269 177 -429 159z"/>
<path d="M1470 2300 l-695 -5 713 -3 c474 -1 711 1 707 8 -3 6 -12 9 -18 8 -7
-2 -325 -5 -707 -8z"/>
<path d="M3317 2298 c-7 -4 339 -8 767 -8 429 0 777 3 774 6 -9 8 -1528 10
-1541 2z"/>
<path d="M3118 2045 c-70 -74 -103 -101 -165 -133 -111 -57 -169 -68 -263 -48
-116 25 -362 158 -352 191 1 6 32 8 70 6 37 -2 65 -1 62 2 -7 7 -157 47 -176
47 -15 0 -16 -10 -10 -87 9 -110 20 -127 26 -43 l5 65 71 -70 c136 -133 219
-169 389 -170 118 0 121 1 183 34 77 42 175 144 220 229 19 35 32 65 30 67 -1
1 -42 -39 -90 -90z"/>
<path d="M1336 2008 c17 -56 124 -212 131 -191 5 15 -52 139 -83 180 -30 39
-59 45 -48 11z"/>
<path d="M1532 1945 c-15 -32 -35 -239 -28 -285 16 -106 49 -611 50 -770 l1
-185 -30 0 -30 0 -8 155 c-11 218 -44 476 -73 577 -57 198 -188 410 -290 474
-72 44 -50 -3 67 -146 127 -155 184 -300 223 -570 20 -131 41 -438 32 -460 -5
-14 -13 -16 -44 -10 -20 3 -43 12 -51 20 -8 8 -20 71 -32 167 -26 225 -40 273
-102 351 -54 66 -194 145 -243 135 -12 -2 6 -21 58 -60 42 -31 101 -81 133
-110 l57 -53 34 -170 c42 -211 42 -229 7 -261 l-28 -24 38 -31 c39 -32 47 -49
23 -49 -24 0 -58 -34 -51 -51 3 -9 25 -25 48 -35 38 -17 43 -24 50 -64 20
-108 26 -118 24 -40 -2 75 -2 75 25 78 44 5 67 -14 75 -61 l8 -42 5 45 c5 44
5 45 40 42 19 -1 37 -7 41 -13 3 -6 12 -64 19 -130 7 -65 15 -119 19 -119 4 0
6 59 3 130 l-5 130 51 0 c45 0 51 -3 55 -23 l4 -22 2 22 c1 30 37 49 58 31 13
-10 17 -10 20 -1 3 7 20 20 38 29 45 21 53 48 26 85 l-22 30 20 26 c12 14 21
30 21 34 0 5 -16 27 -36 49 l-36 40 4 105 c2 77 8 109 19 120 8 9 55 26 103
39 119 32 134 49 39 44 -56 -3 -79 -9 -104 -27 -47 -35 -53 -17 -25 80 35 123
39 146 26 154 -40 25 -66 -101 -76 -374 -7 -187 -8 -193 -30 -208 -31 -20 -52
-11 -57 24 -3 23 -4 22 -6 -9 -1 -43 -24 -61 -74 -56 l-32 3 -6 80 c-13 164
-32 764 -27 836 4 41 18 107 32 148 14 41 26 93 26 116 0 73 -54 114 -78 60z
m-74 -1324 c5 -31 -13 -41 -51 -30 -74 21 -72 62 1 57 41 -3 47 -6 50 -27z
m317 18 c9 -14 -24 -49 -47 -49 -28 0 -25 47 5 53 12 2 25 5 29 6 4 0 10 -4
13 -10z m-216 -21 c12 -33 3 -48 -30 -48 -22 0 -32 6 -38 23 -12 32 -3 47 30
47 22 0 32 -6 38 -22z m132 6 c22 -27 -1 -49 -52 -49 -39 0 -44 3 -47 24 -2
13 2 28 10 32 22 14 75 10 89 -7z"/>
<path d="M4073 1736 c-50 -42 -102 -180 -117 -311 l-6 -50 24 55 c13 30 53
107 90 170 63 109 76 149 50 157 -6 2 -25 -7 -41 -21z"/>
<path d="M1771 1701 c-87 -135 -104 -282 -83 -737 l7 -169 6 320 6 320 57 147
c31 80 56 151 56 157 0 24 -19 9 -49 -38z"/>
<path d="M2782 988 c2 -414 6 -753 10 -753 7 0 19 1471 11 1491 -3 8 -9 14
-14 14 -5 0 -8 -312 -7 -752z"/>
<path d="M1057 1634 c-3 -4 4 -29 17 -58 31 -70 199 -342 203 -329 5 13 -42
143 -78 218 -49 101 -122 188 -142 169z"/>
<path d="M4166 1459 c-27 -21 -61 -77 -53 -85 9 -10 117 51 123 68 13 41 -27
51 -70 17z"/>
<path d="M3952 1209 c-1 -47 -5 -89 -9 -92 -3 -4 -15 1 -26 10 -19 17 -19 17
-12 -7 32 -103 75 -334 64 -345 -3 -2 -77 -7 -165 -9 -179 -6 -290 -24 -371
-61 -67 -30 -66 -40 2 -19 122 37 360 55 485 36 l45 -7 3 -50 c5 -70 -15 -159
-49 -227 -31 -61 -37 -92 -17 -86 32 11 70 127 83 256 4 34 11 62 16 62 6 0
17 -16 24 -35 20 -47 73 -105 96 -105 18 0 19 2 4 28 -9 15 -27 42 -40 61 -25
33 -33 75 -17 85 4 3 80 -7 168 -20 172 -28 338 -29 419 -3 l40 12 -35 7 c-19
4 -129 13 -245 20 -294 16 -356 25 -377 51 -23 27 -24 152 -3 294 8 55 17 123
20 150 l5 50 -15 -40 c-9 -22 -21 -88 -28 -147 -6 -60 -14 -108 -18 -108 -12
0 -17 25 -28 141 -6 63 -13 130 -14 149 -2 19 -5 -4 -5 -51z"/>
<path d="M3621 1244 c5 -24 112 -62 202 -71 57 -6 61 -5 48 10 -26 32 -119 69
-187 75 -61 4 -66 3 -63 -14z"/>
</g>
</svg>
